<?xml version="1.0" encoding="UTF-8" standalone="no"?><svg xmlns="http://www.w3.org/2000/svg" xmlns:xlink="http://www.w3.org/1999/xlink" contentScriptType="application/ecmascript" contentStyleType="text/css" height="644px" preserveAspectRatio="none" style="width:1432px;height:644px;" version="1.1" viewBox="0 0 1432 644" width="1432px" zoomAndPan="magnify"><defs><filter height="300%" id="fjtpydcxoeqn4" width="300%" x="-1" y="-1"><feGaussianBlur result="blurOut" stdDeviation="2.0"/><feColorMatrix in="blurOut" result="blurOut2" type="matrix" values="0 0 0 0 0 0 0 0 0 0 0 0 0 0 0 0 0 0 .4 0"/><feOffset dx="4.0" dy="4.0" in="blurOut2" result="blurOut3"/><feBlend in="SourceGraphic" in2="blurOut3" mode="normal"/></filter></defs><g><!--MD5=[28016e0c640cdb283d9f4689d89fbbf7]
cluster Confluent.Kafka--><polygon fill="#FFFFFF" filter="url(#fjtpydcxoeqn4)" points="1031,561,1163,561,1170,583.2969,1264,583.2969,1264,632,1031,632,1031,561" style="stroke: #000000; stroke-width: 1.5;"/><line style="stroke: #000000; stroke-width: 1.5;" x1="1031" x2="1170" y1="583.2969" y2="583.2969"/><text fill="#000000" font-family="sans-serif" font-size="14" font-weight="bold" lengthAdjust="spacingAndGlyphs" textLength="126" x="1035" y="575.9951">Confluent.Kafka</text><!--MD5=[98fc865ea913c4797b1bbd7ed8d8f65d]
cluster Common.Kafka--><polygon fill="#FFFFFF" filter="url(#fjtpydcxoeqn4)" points="840,252,964,252,971,274.2969,1327,274.2969,1327,514,840,514,840,252" style="stroke: #000000; stroke-width: 1.5;"/><line style="stroke: #000000; stroke-width: 1.5;" x1="840" x2="971" y1="274.2969" y2="274.2969"/><text fill="#000000" font-family="sans-serif" font-size="14" font-weight="bold" lengthAdjust="spacingAndGlyphs" textLength="118" x="844" y="266.9951">Common.Kafka</text><!--MD5=[c253113ac072c9194e26b85789b8778e]
cluster MediatR--><polygon fill="#FFFFFF" filter="url(#fjtpydcxoeqn4)" points="306,16,374,16,381,38.2969,402,38.2969,402,87,306,87,306,16" style="stroke: #000000; stroke-width: 1.5;"/><line style="stroke: #000000; stroke-width: 1.5;" x1="306" x2="381" y1="38.2969" y2="38.2969"/><text fill="#000000" font-family="sans-serif" font-size="14" font-weight="bold" lengthAdjust="spacingAndGlyphs" textLength="62" x="310" y="30.9951">MediatR</text><!--MD5=[96292cf66763ea5bc10bef3890bf1097]
cluster ConsumerWorker--><polygon fill="#FFFFFF" filter="url(#fjtpydcxoeqn4)" points="51,134,196,134,203,156.2969,1041,156.2969,1041,205,51,205,51,134" style="stroke: #000000; stroke-width: 1.5;"/><line style="stroke: #000000; stroke-width: 1.5;" x1="51" x2="203" y1="156.2969" y2="156.2969"/><text fill="#000000" font-family="sans-serif" font-size="14" font-weight="bold" lengthAdjust="spacingAndGlyphs" textLength="139" x="55" y="148.9951">ConsumerWorker</text><!--MD5=[7116b8c8ccc5f13fafa86561c548a216]
cluster ProducerWorker--><polygon fill="#FFFFFF" filter="url(#fjtpydcxoeqn4)" points="1151,134,1288,134,1295,156.2969,1298,156.2969,1298,205,1151,205,1151,134" style="stroke: #000000; stroke-width: 1.5;"/><line style="stroke: #000000; stroke-width: 1.5;" x1="1151" x2="1295" y1="156.2969" y2="156.2969"/><text fill="#000000" font-family="sans-serif" font-size="14" font-weight="bold" lengthAdjust="spacingAndGlyphs" textLength="131" x="1155" y="148.9951">ProducerWorker</text><!--MD5=[e7be3df23305191907785cbafaa7f81b]
cluster ProducerWorker.Messages--><polygon fill="#FFFFFF" filter="url(#fjtpydcxoeqn4)" points="214,252,435,252,442,274.2969,797,274.2969,797,323,214,323,214,252" style="stroke: #000000; stroke-width: 1.5;"/><line style="stroke: #000000; stroke-width: 1.5;" x1="214" x2="442" y1="274.2969" y2="274.2969"/><text fill="#000000" font-family="sans-serif" font-size="14" font-weight="bold" lengthAdjust="spacingAndGlyphs" textLength="215" x="218" y="266.9951">ProducerWorker.Messages</text><!--MD5=[5234e553a7fce6255a240a5c6481e4c6]
entity IConsumer--><rect fill="#FEFECE" filter="url(#fjtpydcxoeqn4)" height="36.2969" style="stroke: #A80036; stroke-width: 1.5;" width="95" x="1039.5" y="588"/><rect fill="#FEFECE" height="5" style="stroke: #A80036; stroke-width: 1.5;" width="10" x="1034.5" y="593"/><rect fill="#FEFECE" height="5" style="stroke: #A80036; stroke-width: 1.5;" width="10" x="1034.5" y="614.2969"/><text fill="#000000" font-family="sans-serif" font-size="14" lengthAdjust="spacingAndGlyphs" textLength="75" x="1049.5" y="610.9951">IConsumer</text><!--MD5=[11d4ed0e8e91b16d3539fc5b0d251101]
entity IProducer--><rect fill="#FEFECE" filter="url(#fjtpydcxoeqn4)" height="36.2969" style="stroke: #A80036; stroke-width: 1.5;" width="86" x="1170" y="588"/><rect fill="#FEFECE" height="5" style="stroke: #A80036; stroke-width: 1.5;" width="10" x="1165" y="593"/><rect fill="#FEFECE" height="5" style="stroke: #A80036; stroke-width: 1.5;" width="10" x="1165" y="614.2969"/><text fill="#000000" font-family="sans-serif" font-size="14" lengthAdjust="spacingAndGlyphs" textLength="66" x="1180" y="610.9951">IProducer</text><!--MD5=[4081b6759a1d316f58f7fc02d3fb2e3c]
entity KafkaMessageConsumerManager--><rect fill="#FEFECE" filter="url(#fjtpydcxoeqn4)" height="36.2969" style="stroke: #A80036; stroke-width: 1.5;" width="252" x="848" y="279"/><rect fill="#FEFECE" height="5" style="stroke: #A80036; stroke-width: 1.5;" width="10" x="843" y="284"/><rect fill="#FEFECE" height="5" style="stroke: #A80036; stroke-width: 1.5;" width="10" x="843" y="305.2969"/><text fill="#000000" font-family="sans-serif" font-size="14" lengthAdjust="spacingAndGlyphs" textLength="232" x="858" y="301.9951">KafkaMessageConsumerManager</text><!--MD5=[793cf699b0ac2293c769748426eaf5e0]
entity KafkaTopicMessageConsumer--><rect fill="#FEFECE" filter="url(#fjtpydcxoeqn4)" height="36.2969" style="stroke: #A80036; stroke-width: 1.5;" width="230" x="859" y="470"/><rect fill="#FEFECE" height="5" style="stroke: #A80036; stroke-width: 1.5;" width="10" x="854" y="475"/><rect fill="#FEFECE" height="5" style="stroke: #A80036; stroke-width: 1.5;" width="10" x="854" y="496.2969"/><text fill="#000000" font-family="sans-serif" font-size="14" lengthAdjust="spacingAndGlyphs" textLength="210" x="869" y="492.9951">KafkaTopicMessageConsumer</text><!--MD5=[dd2fe45541e12507d1a77f7f7e29dca1]
entity KafkaMessageProducer--><rect fill="#FEFECE" filter="url(#fjtpydcxoeqn4)" height="36.2969" style="stroke: #A80036; stroke-width: 1.5;" width="183" x="1135.5" y="279"/><rect fill="#FEFECE" height="5" style="stroke: #A80036; stroke-width: 1.5;" width="10" x="1130.5" y="284"/><rect fill="#FEFECE" height="5" style="stroke: #A80036; stroke-width: 1.5;" width="10" x="1130.5" y="305.2969"/><text fill="#000000" font-family="sans-serif" font-size="14" lengthAdjust="spacingAndGlyphs" textLength="163" x="1145.5" y="301.9951">KafkaMessageProducer</text><!--MD5=[88060901833da2f31ec4d1b50cc29f96]
entity Mediator--><rect fill="#FEFECE" filter="url(#fjtpydcxoeqn4)" height="36.2969" style="stroke: #A80036; stroke-width: 1.5;" width="80" x="314" y="43"/><rect fill="#FEFECE" height="5" style="stroke: #A80036; stroke-width: 1.5;" width="10" x="309" y="48"/><rect fill="#FEFECE" height="5" style="stroke: #A80036; stroke-width: 1.5;" width="10" x="309" y="69.2969"/><text fill="#000000" font-family="sans-serif" font-size="14" lengthAdjust="spacingAndGlyphs" textLength="60" x="324" y="65.9951">Mediator</text><!--MD5=[7c190d73c7d40839c6f5daf2a7479035]
entity ConsumerWorker.Worker--><rect fill="#FEFECE" filter="url(#fjtpydcxoeqn4)" height="36.2969" style="stroke: #A80036; stroke-width: 1.5;" width="69" x="963.5" y="161"/><rect fill="#FEFECE" height="5" style="stroke: #A80036; stroke-width: 1.5;" width="10" x="958.5" y="166"/><rect fill="#FEFECE" height="5" style="stroke: #A80036; stroke-width: 1.5;" width="10" x="958.5" y="187.2969"/><text fill="#000000" font-family="sans-serif" font-size="14" lengthAdjust="spacingAndGlyphs" textLength="49" x="973.5" y="183.9951">Worker</text><!--MD5=[dcdc8c16c1de6ae2c104684b01b56f60]
entity SampleMessageLoggerHandler--><rect fill="#FEFECE" filter="url(#fjtpydcxoeqn4)" height="36.2969" style="stroke: #A80036; stroke-width: 1.5;" width="235" x="693.5" y="161"/><rect fill="#FEFECE" height="5" style="stroke: #A80036; stroke-width: 1.5;" width="10" x="688.5" y="166"/><rect fill="#FEFECE" height="5" style="stroke: #A80036; stroke-width: 1.5;" width="10" x="688.5" y="187.2969"/><text fill="#000000" font-family="sans-serif" font-size="14" lengthAdjust="spacingAndGlyphs" textLength="215" x="703.5" y="183.9951">SampleMessageLoggerHandler</text><!--MD5=[e754ae3eb5c2f9efded0dcaefac852bd]
entity OtherSampleMessageLoggerHandler--><rect fill="#FEFECE" filter="url(#fjtpydcxoeqn4)" height="36.2969" style="stroke: #A80036; stroke-width: 1.5;" width="274" x="59" y="161"/><rect fill="#FEFECE" height="5" style="stroke: #A80036; stroke-width: 1.5;" width="10" x="54" y="166"/><rect fill="#FEFECE" height="5" style="stroke: #A80036; stroke-width: 1.5;" width="10" x="54" y="187.2969"/><text fill="#000000" font-family="sans-serif" font-size="14" lengthAdjust="spacingAndGlyphs" textLength="254" x="69" y="183.9951">OtherSampleMessageLoggerHandler</text><!--MD5=[9c294be923ba234def69723f54caac4d]
entity AnotherSampleMessageLoggerHandler--><rect fill="#FEFECE" filter="url(#fjtpydcxoeqn4)" height="36.2969" style="stroke: #A80036; stroke-width: 1.5;" width="290" x="368" y="161"/><rect fill="#FEFECE" height="5" style="stroke: #A80036; stroke-width: 1.5;" width="10" x="363" y="166"/><rect fill="#FEFECE" height="5" style="stroke: #A80036; stroke-width: 1.5;" width="10" x="363" y="187.2969"/><text fill="#000000" font-family="sans-serif" font-size="14" lengthAdjust="spacingAndGlyphs" textLength="270" x="378" y="183.9951">AnotherSampleMessageLoggerHandler</text><!--MD5=[f03f1865077383203b97ef27b3af324c]
entity ProducerWorker.Worker--><rect fill="#FEFECE" filter="url(#fjtpydcxoeqn4)" height="36.2969" style="stroke: #A80036; stroke-width: 1.5;" width="69" x="1192.5" y="161"/><rect fill="#FEFECE" height="5" style="stroke: #A80036; stroke-width: 1.5;" width="10" x="1187.5" y="166"/><rect fill="#FEFECE" height="5" style="stroke: #A80036; stroke-width: 1.5;" width="10" x="1187.5" y="187.2969"/><text fill="#000000" font-family="sans-serif" font-size="14" lengthAdjust="spacingAndGlyphs" textLength="49" x="1202.5" y="183.9951">Worker</text><!--MD5=[f49126d5cf81171bc06f8a92954cdacf]
entity SampleMessage--><rect fill="#FEFECE" filter="url(#fjtpydcxoeqn4)" height="36.2969" style="stroke: #A80036; stroke-width: 1.5;" width="134" x="655" y="279"/><rect fill="#FEFECE" height="5" style="stroke: #A80036; stroke-width: 1.5;" width="10" x="650" y="284"/><rect fill="#FEFECE" height="5" style="stroke: #A80036; stroke-width: 1.5;" width="10" x="650" y="305.2969"/><text fill="#000000" font-family="sans-serif" font-size="14" lengthAdjust="spacingAndGlyphs" textLength="114" x="665" y="301.9951">SampleMessage</text><!--MD5=[7e21920ac2903b863eec7fc010738c9f]
entity OtherSampleMessage--><rect fill="#FEFECE" filter="url(#fjtpydcxoeqn4)" height="36.2969" style="stroke: #A80036; stroke-width: 1.5;" width="173" x="222.5" y="279"/><rect fill="#FEFECE" height="5" style="stroke: #A80036; stroke-width: 1.5;" width="10" x="217.5" y="284"/><rect fill="#FEFECE" height="5" style="stroke: #A80036; stroke-width: 1.5;" width="10" x="217.5" y="305.2969"/><text fill="#000000" font-family="sans-serif" font-size="14" lengthAdjust="spacingAndGlyphs" textLength="153" x="232.5" y="301.9951">OtherSampleMessage</text><!--MD5=[946f5a1ecdebc1d8b4b9c5e184573850]
entity AnotherSampleMessage--><rect fill="#FEFECE" filter="url(#fjtpydcxoeqn4)" height="36.2969" style="stroke: #A80036; stroke-width: 1.5;" width="189" x="430.5" y="279"/><rect fill="#FEFECE" height="5" style="stroke: #A80036; stroke-width: 1.5;" width="10" x="425.5" y="284"/><rect fill="#FEFECE" height="5" style="stroke: #A80036; stroke-width: 1.5;" width="10" x="425.5" y="305.2969"/><text fill="#000000" font-family="sans-serif" font-size="14" lengthAdjust="spacingAndGlyphs" textLength="169" x="440.5" y="301.9951">AnotherSampleMessage</text><!--MD5=[5f3259296371d96bdf5bea4af3d1a672]
link ProducerWorker.Worker to KafkaMessageProducer--><path d="M1227,197.1789 C1227,217.7674 1227,251.3637 1227,273.8204 " fill="none" id="ProducerWorker.Worker-&gt;KafkaMessageProducer" style="stroke: #A80036; stroke-width: 1.0;"/><polygon fill="#A80036" points="1227,278.9941,1231,269.9941,1227,273.9941,1223,269.9941,1227,278.9941" style="stroke: #A80036; stroke-width: 1.0;"/><text fill="#000000" font-family="sans-serif" font-size="13" lengthAdjust="spacingAndGlyphs" textLength="189" x="1228" y="240.0669">ProduceAsync(key, message)</text><!--MD5=[3ac2c4f3579d62d0293b47c579a3ca65]
link KafkaMessageProducer to IProducer--><path d="M1226.1662,315.404 C1223.7491,368.7525 1216.741,523.4309 1214.0601,582.6014 " fill="none" id="KafkaMessageProducer-&gt;IProducer" style="stroke: #A80036; stroke-width: 1.0;"/><polygon fill="#A80036" points="1213.8295,587.6925,1218.233,578.8829,1214.0559,582.6976,1210.2412,578.5206,1213.8295,587.6925" style="stroke: #A80036; stroke-width: 1.0;"/><text fill="#000000" font-family="sans-serif" font-size="13" lengthAdjust="spacingAndGlyphs" textLength="198" x="1222" y="436.0669">ProduceAsync(topic, message)</text><!--MD5=[03d55dc1de008d097f549da3c46b2f1e]
link ConsumerWorker.Worker to KafkaMessageConsumerManager--><path d="M994.3026,197.1789 C990.1151,217.7674 983.282,251.3637 978.7145,273.8204 " fill="none" id="ConsumerWorker.Worker-&gt;KafkaMessageConsumerManager" style="stroke: #A80036; stroke-width: 1.0;"/><polygon fill="#A80036" points="977.6622,278.9941,983.3758,270.972,978.6588,274.0944,975.5363,269.3774,977.6622,278.9941" style="stroke: #A80036; stroke-width: 1.0;"/><text fill="#000000" font-family="sans-serif" font-size="13" lengthAdjust="spacingAndGlyphs" textLength="105" x="989" y="240.0669">StartConsumers</text><!--MD5=[2ea982d1373ee66e87a3e71246e52635]
link KafkaMessageConsumerManager to KafkaTopicMessageConsumer--><path d="M974,315.3139 C974,350.1105 974,425.7413 974,464.3267 " fill="none" id="KafkaMessageConsumerManager-&gt;KafkaTopicMessageConsumer" style="stroke: #A80036; stroke-width: 1.0;"/><polygon fill="#A80036" points="974,469.7416,978,460.7416,974,464.7416,970,460.7416,974,469.7416" style="stroke: #A80036; stroke-width: 1.0;"/><text fill="#000000" font-family="sans-serif" font-size="13" lengthAdjust="spacingAndGlyphs" textLength="104" x="975" y="389.0669">StartConsuming</text><!--MD5=[27ab7185e610927302acf1098936f30e]
link KafkaTopicMessageConsumer to IConsumer--><path d="M1009.4033,506.1408 C1022.5962,514.0701 1037.0183,524.2554 1048,536 C1060.8047,549.6942 1070.9358,568.3693 1077.6597,582.986 " fill="none" id="KafkaTopicMessageConsumer-&gt;IConsumer" style="stroke: #A80036; stroke-width: 1.0;"/><polygon fill="#A80036" points="1079.8083,587.7744,1079.7732,577.9256,1077.7613,583.2126,1072.4743,581.2008,1079.8083,587.7744" style="stroke: #A80036; stroke-width: 1.0;"/><text fill="#000000" font-family="sans-serif" font-size="13" lengthAdjust="spacingAndGlyphs" textLength="104" x="1061" y="549.0669">Subscribe(topic)</text><!--MD5=[27ab7185e610927302acf1098936f30e]
link KafkaTopicMessageConsumer to IConsumer--><path d="M966.1261,506.2863 C961.455,520.1893 958.0161,539.211 967,553 C981.9773,575.988 1009.4321,589.0772 1034.3044,596.4934 " fill="none" id="KafkaTopicMessageConsumer-&gt;IConsumer-1" style="stroke: #A80036; stroke-width: 1.0;"/><polygon fill="#A80036" points="1039.2399,597.9023,1031.6837,591.5853,1034.432,596.5297,1029.4876,599.278,1039.2399,597.9023" style="stroke: #A80036; stroke-width: 1.0;"/><text fill="#000000" font-family="sans-serif" font-size="13" lengthAdjust="spacingAndGlyphs" textLength="71" x="968" y="549.0669">Consume()</text><!--MD5=[21e7d6003c5d2559e885eadb429f8524]
link KafkaTopicMessageConsumer to Mediator--><path d="M858.6776,481.5729 C602.0013,466.502 6,426.9382 6,384.5 C6,179 6,179 6,179 C6,153.1075 21.0159,147.6791 43,134 C87.146,106.5312 233.4584,80.1397 308.5976,67.9828 " fill="none" id="KafkaTopicMessageConsumer-&gt;Mediator" style="stroke: #A80036; stroke-width: 1.0;"/><polygon fill="#A80036" points="313.8823,67.1322,304.361,64.6132,308.9458,67.9268,305.6323,72.5116,313.8823,67.1322" style="stroke: #A80036; stroke-width: 1.0;"/><text fill="#000000" font-family="sans-serif" font-size="13" lengthAdjust="spacingAndGlyphs" textLength="179" x="7" y="301.5669">Publish(consumedMessage)</text><!--MD5=[a0a2b2136a580954d0ddd71ae24b37e5]
link Mediator to SampleMessageLoggerHandler--><path d="M394.2744,64.6635 C471.9057,72.0563 639.4095,89.7074 694,109 C726.7756,120.5831 760.4508,141.9132 783.2071,157.9953 " fill="none" id="Mediator-&gt;SampleMessageLoggerHandler" style="stroke: #A80036; stroke-width: 1.0;"/><polygon fill="#A80036" points="787.3265,160.9335,782.3224,152.4507,783.256,158.0299,777.6767,158.9635,787.3265,160.9335" style="stroke: #A80036; stroke-width: 1.0;"/><text fill="#000000" font-family="sans-serif" font-size="13" lengthAdjust="spacingAndGlyphs" textLength="161" x="732" y="122.0669">Handle(SampleMessage)</text><!--MD5=[b6888ff8a2a5b168f7344a0c3b8e87df]
link Mediator to OtherSampleMessageLoggerHandler--><path d="M313.8839,74.5925 C293.7375,82.6331 269.704,94.1676 251,109 C234.3188,122.2283 219.6649,141.4882 209.6865,156.4586 " fill="none" id="Mediator-&gt;OtherSampleMessageLoggerHandler" style="stroke: #A80036; stroke-width: 1.0;"/><polygon fill="#A80036" points="206.7427,160.9555,215.0187,155.6163,209.4812,156.7721,208.3254,151.2346,206.7427,160.9555" style="stroke: #A80036; stroke-width: 1.0;"/><text fill="#000000" font-family="sans-serif" font-size="13" lengthAdjust="spacingAndGlyphs" textLength="197" x="252" y="122.0669">Handle(OtherSampleMessage)</text><!--MD5=[25476edccb33bcbae8d3f0fe5ad583ab]
link Mediator to AnotherSampleMessageLoggerHandler--><path d="M394.1856,75.6768 C413.3844,83.8004 436.0343,95.0857 454,109 C471.3437,122.4325 487.136,141.7287 498.0083,156.6611 " fill="none" id="Mediator-&gt;AnotherSampleMessageLoggerHandler" style="stroke: #A80036; stroke-width: 1.0;"/><polygon fill="#A80036" points="500.9416,160.7486,498.944,151.1045,498.0264,156.6864,492.4444,155.7688,500.9416,160.7486" style="stroke: #A80036; stroke-width: 1.0;"/><text fill="#000000" font-family="sans-serif" font-size="13" lengthAdjust="spacingAndGlyphs" textLength="212" x="473" y="122.0669">Handle(AnotherSampleMessage)</text><!--MD5=[91c5146612dcf18b024666401a242ede]
link SampleMessageLoggerHandler to SampleMessage--><path d="M797.2888,197.1789 C781.4981,218.1149 755.5624,252.5015 738.6326,274.9478 " fill="none" id="SampleMessageLoggerHandler-&gt;SampleMessage" style="stroke: #A80036; stroke-width: 1.0; stroke-dasharray: 7.0,7.0;"/><polygon fill="#A80036" points="735.5807,278.9941,744.1937,274.2175,738.5915,275.0023,737.8067,269.4001,735.5807,278.9941" style="stroke: #A80036; stroke-width: 1.0;"/><text fill="#000000" font-family="sans-serif" font-size="13" lengthAdjust="spacingAndGlyphs" textLength="52" x="775" y="240.0669">Handles</text><!--MD5=[32d315126c092fe5867bab8fab1f5f1e]
link OtherSampleMessageLoggerHandler to OtherSampleMessage--><path d="M213.4086,197.1789 C233.5406,218.2017 266.6605,252.7871 288.1492,275.2266 " fill="none" id="OtherSampleMessageLoggerHandler-&gt;OtherSampleMessage" style="stroke: #A80036; stroke-width: 1.0; stroke-dasharray: 7.0,7.0;"/><polygon fill="#A80036" points="291.757,278.9941,288.4214,269.7273,288.2989,275.3828,282.6433,275.2603,291.757,278.9941" style="stroke: #A80036; stroke-width: 1.0;"/><text fill="#000000" font-family="sans-serif" font-size="13" lengthAdjust="spacingAndGlyphs" textLength="52" x="256" y="240.0669">Handles</text><!--MD5=[e7761309bb3d460400fedf9c54246755]
link AnotherSampleMessageLoggerHandler to AnotherSampleMessage--><path d="M514.8487,197.1789 C516.9424,217.7674 520.359,251.3637 522.6427,273.8204 " fill="none" id="AnotherSampleMessageLoggerHandler-&gt;AnotherSampleMessage" style="stroke: #A80036; stroke-width: 1.0; stroke-dasharray: 7.0,7.0;"/><polygon fill="#A80036" points="523.1689,278.9941,526.2378,269.6356,522.6631,274.0198,518.2789,270.445,523.1689,278.9941" style="stroke: #A80036; stroke-width: 1.0;"/><text fill="#000000" font-family="sans-serif" font-size="13" lengthAdjust="spacingAndGlyphs" textLength="52" x="520" y="240.0669">Handles</text><!--MD5=[5d793196ed882bdb74c5d22c8f4b587b]
@startuml

package "Confluent.Kafka" {
    [IConsumer]
    [IProducer]
}

package "Common.Kafka" {
  [KafkaMessageConsumerManager]
  [KafkaTopicMessageConsumer]
  [KafkaMessageProducer]
}

package "MediatR" {
    [Mediator]
}

package "ConsumerWorker" {
    [Worker] as ConsumerWorker.Worker
    [SampleMessageLoggerHandler]
    [OtherSampleMessageLoggerHandler]
    [AnotherSampleMessageLoggerHandler]
}

package "ProducerWorker" {
    [Worker] as ProducerWorker.Worker
}

package "ProducerWorker.Messages" {
    [SampleMessage]
    [OtherSampleMessage]
    [AnotherSampleMessage]
}

[ProducerWorker.Worker] - -> [KafkaMessageProducer] : ProduceAsync(key, message)
[KafkaMessageProducer] - -> [IProducer] : ProduceAsync(topic, message)

[ConsumerWorker.Worker] - -> [KafkaMessageConsumerManager] : StartConsumers
[KafkaMessageConsumerManager] - -> [KafkaTopicMessageConsumer] : StartConsuming
[KafkaTopicMessageConsumer] - -> [IConsumer] : Subscribe(topic)
[KafkaTopicMessageConsumer] - -> [IConsumer] : Consume()
[KafkaTopicMessageConsumer] - -> [Mediator] : Publish(consumedMessage)

[Mediator] - -> [SampleMessageLoggerHandler] : Handle(SampleMessage)
[Mediator] - -> [OtherSampleMessageLoggerHandler] : Handle(OtherSampleMessage)
[Mediator] - -> [AnotherSampleMessageLoggerHandler] : Handle(AnotherSampleMessage)

[SampleMessageLoggerHandler] ..> [SampleMessage] : Handles
[OtherSampleMessageLoggerHandler] ..> [OtherSampleMessage] : Handles
[AnotherSampleMessageLoggerHandler] ..> [AnotherSampleMessage] : Handles

@enduml

PlantUML version 1.2020.06(Sun Apr 05 12:38:32 GMT 2020)
(GPL source distribution)
Java Runtime: OpenJDK Runtime Environment
JVM: OpenJDK 64-Bit Server VM
Java Version: 14-ea+33
Operating System: Linux
Default Encoding: UTF-8
Language: en
Country: US
--></g></svg>